# xmcd CD database file generated by Grip 3.0.3
#
# Track frame offsets:
#       150
#       10022
#       24585
#       42640
#       65217
#       86754
#       107817
#       122670
#       139762
#       158012
#       193772
#       203370
#
# Disc length: 3009 seconds
#
# Revision: 0
# Processed by: cddbd v1.4PL0 Copyright (c) Steve Scherf et al.
# Submitted via: Grip 3.0.3
#
DISCID=a20bbf0c
DTITLE=Patrick Coutin - Coutin Live
DYEAR=1991
DGENRE=Alternative
TTITLE0=Intro
TTITLE1=Tout pour faire la guerre
TTITLE2=Le temps change en mieux
TTITLE3=Tellement belle
TTITLE4=Rock'n'Roll (où tu veux quand tu veux)
TTITLE5=Sexy suzy
TTITLE6=Les anges de poussière
TTITLE7=Fais moi jouir
TTITLE8=Faut qu'tu sois un ange
TTITLE9=J'aime regarder les filles
TTITLE10=N'oublie pas
TTITLE11=Knocking on Heaven's door
EXTD=enregistré à Lille à l'Aeronef.
EXTT0=
EXTT1=
EXTT2=
EXTT3=
EXTT4=
EXTT5=
EXTT6=
EXTT7=
EXTT8=
EXTT9=
EXTT10=
EXTT11=
PLAYORDER=
